<svg width="121" height="37" fill="none" xmlns="http://www.w3.org/2000/svg"><path d="m47.491 31.994-2.605-2.818a7.597 7.597 0 0 1-2.114.277c-1.38 0-2.655-.32-3.822-.96a7.403 7.403 0 0 1-2.754-2.712c-.67-1.168-1.004-2.477-1.004-3.93 0-1.451.335-2.754 1.004-3.907a7.242 7.242 0 0 1 2.754-2.69 7.68 7.68 0 0 1 3.822-.982c1.395 0 2.67.327 3.822.982a7.048 7.048 0 0 1 2.755 2.69c.67 1.153 1.004 2.456 1.004 3.908 0 1.366-.3 2.605-.897 3.715a7.023 7.023 0 0 1-2.434 2.648l3.566 3.78H47.49Zm-9.8-10.142c0 1.096.213 2.064.64 2.904a4.824 4.824 0 0 0 1.815 1.921c.769.442 1.644.663 2.626.663.983 0 1.858-.221 2.627-.663a4.68 4.68 0 0 0 1.793-1.921c.442-.84.662-1.808.662-2.904 0-1.096-.22-2.057-.662-2.883-.427-.826-1.025-1.459-1.793-1.9-.769-.442-1.644-.662-2.627-.662-.982 0-1.857.22-2.626.662-.769.441-1.374 1.075-1.815 1.9-.427.826-.64 1.787-.64 2.883Zm17.532-7.388v9.459c0 1.125.292 1.972.876 2.541.598.57 1.423.854 2.477.854 1.068 0 1.893-.285 2.477-.854.598-.57.897-1.416.897-2.541v-9.46h2.434v9.417c0 1.21-.263 2.235-.79 3.075a4.904 4.904 0 0 1-2.114 1.88c-.883.412-1.858.618-2.925.618-1.068 0-2.043-.206-2.926-.619a4.799 4.799 0 0 1-2.071-1.879c-.513-.84-.769-1.865-.769-3.075v-9.416h2.434Zm14.764 0v14.84h-2.434v-14.84h2.434Zm2.385 7.388c0-1.452.335-2.755 1.004-3.908a7.243 7.243 0 0 1 2.754-2.69 7.681 7.681 0 0 1 3.822-.982c1.58 0 2.983.39 4.207 1.174 1.238.769 2.135 1.865 2.69 3.288h-2.925c-.384-.783-.918-1.366-1.602-1.75-.683-.385-1.473-.577-2.37-.577-.982 0-1.857.22-2.626.662-.769.441-1.374 1.075-1.815 1.9-.427.826-.64 1.787-.64 2.883s.213 2.057.64 2.882a4.825 4.825 0 0 0 1.815 1.922c.769.442 1.644.662 2.626.662.897 0 1.687-.192 2.37-.576.684-.385 1.218-.968 1.602-1.751h2.925c-.555 1.423-1.452 2.52-2.69 3.288-1.224.769-2.627 1.153-4.207 1.153-1.395 0-2.669-.32-3.822-.96a7.404 7.404 0 0 1-2.754-2.713c-.67-1.153-1.004-2.455-1.004-3.907Zm19.76 5.488h5.019v1.964h-7.452v-14.84h2.434V27.34Zm9.489-10.912v4.356h5.124v1.986h-5.124v4.548h5.765v1.986h-8.2V14.442h8.2v1.986h-5.765Zm18.351-1.964v1.986h-3.951v12.854h-2.434V16.45h-3.971v-1.986h10.356Z" fill="#000"/><path d="m47.491 31.994-.435.403.176.19h.26v-.593Zm-2.605-2.818.436-.403-.249-.269-.351.102.164.57Zm-5.936-.683-.293.515.008.005.285-.52Zm-2.754-2.712-.515.295.004.007.51-.302Zm0-7.837-.51-.302-.003.005.513.297Zm2.754-2.69.288.518.002-.001-.29-.517Zm7.644 0-.292.516.007.004.285-.52Zm2.755 2.69-.513.298.513-.298Zm.107 7.623-.522-.281-.002.002.524.28Zm-2.434 2.648-.322-.499-.6.387.49.519.432-.407Zm3.566 3.78v.592h1.375l-.944-1-.431.407Zm-12.257-7.24-.529.27.006.01.523-.28Zm1.815 1.922-.303.51.008.005.295-.515Zm5.253 0 .295.515.007-.004-.302-.51Zm1.793-1.921-.525-.276-.001.003.526.273Zm0-5.787-.526.273.003.007.523-.28Zm-1.793-1.9-.296.514.296-.514Zm-5.253 0 .295.514-.295-.514Zm-1.815 1.9-.523-.28-.004.008.527.272Zm9.596 12.623-2.605-2.819-.871.805 2.605 2.819.87-.805Zm-3.205-2.986a7.01 7.01 0 0 1-1.95.254v1.187c.816 0 1.577-.099 2.279-.301l-.33-1.14Zm-1.95.254c-1.285 0-2.46-.297-3.536-.887l-.571 1.04c1.258.69 2.63 1.034 4.107 1.034V28.86Zm-3.529-.883a6.81 6.81 0 0 1-2.537-2.499l-1.02.605a7.996 7.996 0 0 0 2.971 2.925l.586-1.031Zm-2.533-2.491c-.613-1.07-.925-2.277-.925-3.634H34.6c0 1.547.358 2.96 1.082 4.224l1.03-.59Zm-.925-3.634c0-1.357.312-2.555.924-3.61l-1.026-.596c-.727 1.252-1.084 2.659-1.084 4.206h1.186Zm.92-3.605a6.65 6.65 0 0 1 2.533-2.475l-.576-1.037a7.835 7.835 0 0 0-2.977 2.907l1.02.605Zm2.535-2.476a7.088 7.088 0 0 1 3.532-.906v-1.187c-1.479 0-2.853.352-4.112 1.058l.58 1.035Zm3.532-.906c1.298 0 2.47.303 3.53.905l.585-1.032c-1.247-.708-2.623-1.06-4.115-1.06v1.187Zm3.537.909a6.455 6.455 0 0 1 2.527 2.468l1.026-.596a7.641 7.641 0 0 0-2.982-2.912l-.57 1.04Zm2.527 2.468c.612 1.055.924 2.253.924 3.61h1.186c0-1.547-.358-2.954-1.084-4.206l-1.026.596Zm.924 3.61c0 1.277-.279 2.417-.826 3.434l1.044.562c.648-1.203.968-2.54.968-3.996H49.76Zm-.828 3.436a6.43 6.43 0 0 1-2.232 2.428l.643.998a7.616 7.616 0 0 0 2.636-2.868l-1.047-.558Zm-2.342 3.334 3.566 3.78.863-.815-3.566-3.78-.863.815Zm3.997 2.78h-3.096v1.185h3.096v-1.186Zm-13.49-9.55c0 1.174.23 2.237.705 3.173l1.058-.538c-.379-.744-.577-1.617-.577-2.635h-1.186Zm.71 3.183a5.417 5.417 0 0 0 2.036 2.153l.605-1.02a4.231 4.231 0 0 1-1.594-1.692l-1.046.56Zm2.044 2.157c.868.498 1.847.74 2.921.74v-1.186c-.89 0-1.661-.199-2.33-.583l-.591 1.029Zm2.921.74c1.075 0 2.054-.242 2.922-.74l-.59-1.029c-.67.384-1.442.583-2.332.583v1.187Zm2.93-.744a5.272 5.272 0 0 0 2.017-2.16l-1.053-.545a4.087 4.087 0 0 1-1.57 1.684l.605 1.02Zm2.016-2.156c.492-.938.73-2.003.73-3.18H47.26c0 1.015-.204 1.885-.594 2.628l1.05.552Zm.73-3.18c0-1.177-.238-2.237-.733-3.163l-1.046.56c.388.726.592 1.588.592 2.603h1.186Zm-.729-3.155c-.477-.922-1.153-1.642-2.025-2.143l-.59 1.03c.664.38 1.184.928 1.562 1.658l1.053-.545Zm-2.025-2.143c-.868-.498-1.847-.74-2.922-.74V17c.89 0 1.662.199 2.331.583l.591-1.029Zm-2.922-.74c-1.074 0-2.053.242-2.921.74l.59 1.03c.67-.385 1.441-.584 2.331-.584v-1.186Zm-2.921.74c-.871.5-1.553 1.218-2.043 2.136l1.046.559c.392-.734.92-1.283 1.587-1.666l-.59-1.029Zm-2.047 2.143c-.478.923-.707 1.98-.707 3.155h1.186c0-1.018.198-1.883.575-2.61l-1.054-.545Zm17.42-4.233h.593v-.594h-.594v.594Zm.875 12-.414.425.005.005.409-.43Zm4.954 0-.41-.43-.004.005.414.425Zm.897-12v-.594h-.594v.594h.594Zm2.434 0h.593v-.594h-.593v.594Zm-.79 12.491.502.315-.502-.315Zm-2.114 1.88-.252-.538.252.537Zm-5.85 0-.256.535.004.001.251-.537Zm-2.072-1.88-.506.309.506-.309Zm-.769-12.491v-.594h-.593v.594h.593Zm1.841 0v9.459h1.187v-9.46H54.63Zm0 9.459c0 1.222.319 2.248 1.055 2.966l.828-.85c-.431-.42-.696-1.09-.696-2.116H54.63Zm1.06 2.97c.736.702 1.724 1.018 2.886 1.018v-1.186c-.945 0-1.608-.253-2.068-.69l-.818.858Zm2.886 1.018c1.173 0 2.166-.315 2.891-1.023l-.828-.849c-.442.431-1.1.686-2.063.686v1.186Zm2.886-1.018c.753-.717 1.08-1.744 1.08-2.97h-1.186c0 1.023-.27 1.69-.712 2.112l.818.858Zm1.08-2.97v-9.46h-1.186v9.46h1.187Zm-.592-8.866h2.434V13.87H61.95v1.187Zm1.84-.593v9.416h1.187v-9.416h-1.186Zm0 9.416c0 1.123-.243 2.033-.699 2.76l1.005.63c.598-.953.881-2.093.881-3.39h-1.186Zm-.699 2.76a4.31 4.31 0 0 1-1.863 1.657l.503 1.074a5.495 5.495 0 0 0 2.365-2.1l-1.005-.631Zm-1.863 1.657c-.796.372-1.684.563-2.674.563v1.187c1.147 0 2.209-.223 3.177-.676l-.503-1.074Zm-2.674.563c-.989 0-1.877-.19-2.674-.563l-.502 1.074c.968.454 2.03.676 3.176.676V28.86Zm-2.67-.561a4.205 4.205 0 0 1-1.82-1.653l-1.012.618a5.39 5.39 0 0 0 2.322 2.106l.51-1.072Zm-1.82-1.653c-.444-.727-.682-1.64-.682-2.766h-1.186c0 1.294.275 2.432.856 3.384l1.012-.618Zm-.682-2.766v-9.416h-1.186v9.416h1.186Zm-.593-8.823h2.434V13.87H52.79v1.187Zm17.198-.593h.594v-.594h-.594v.594Zm0 14.84v.593h.594v-.593h-.594Zm-2.434 0h-.593v.593h.593v-.593Zm0-14.84v-.594h-.593v.594h.593Zm1.841 0v14.84h1.187v-14.84h-1.187Zm.593 14.247h-2.434v1.186h2.434v-1.186Zm-1.84.593v-14.84H66.96v14.84h1.186Zm-.594-14.247h2.434V13.87h-2.434v1.187Zm5.823 2.887-.51-.302-.003.005.513.297Zm2.754-2.69.288.518.002-.001-.29-.517Zm8.029.192-.32.5.007.004.313-.504Zm2.69 3.288v.593h.868l-.315-.808-.553.215Zm-2.925 0-.533.262.163.331h.37v-.593Zm-1.602-1.75.291-.518-.29.517Zm-4.996.085.295.514-.295-.514Zm-1.815 1.9-.523-.28-.004.008.527.272Zm0 5.765-.527.273.004.007.523-.28Zm1.815 1.922-.302.51.007.005.295-.515Zm4.997.086.29.517-.29-.517Zm1.601-1.751v-.593h-.37l-.163.331.533.262Zm2.925 0 .553.215.315-.808h-.868v.593Zm-2.69 3.288-.313-.504-.003.002.316.502Zm-8.029.192-.293.516.005.003.288-.519Zm-2.754-2.712-.513.298.002.005.51-.303Zm-.41-3.907c0-1.357.31-2.555.923-3.61l-1.026-.596c-.727 1.252-1.084 2.659-1.084 4.206h1.186Zm.92-3.605a6.65 6.65 0 0 1 2.532-2.475l-.576-1.037a7.836 7.836 0 0 0-2.977 2.907l1.02.605Zm2.534-2.476a7.088 7.088 0 0 1 3.532-.906v-1.187c-1.479 0-2.853.352-4.112 1.058l.58 1.035Zm3.532-.906c1.478 0 2.767.364 3.887 1.08l.64-.999c-1.329-.85-2.844-1.268-4.527-1.268v1.187Zm3.894 1.085c1.124.697 1.94 1.69 2.45 3l1.106-.431c-.6-1.537-1.577-2.737-2.93-3.577l-.626 1.008Zm3.003 2.191h-2.925v1.186h2.925v-1.186Zm-2.393.332c-.43-.878-1.043-1.557-1.843-2.007l-.581 1.034c.567.32 1.022.808 1.36 1.496l1.064-.523Zm-1.843-2.007c-.784-.44-1.677-.652-2.66-.652V17c.81 0 1.496.173 2.079.5l.581-1.034Zm-2.66-.652c-1.075 0-2.054.242-2.922.74l.59 1.03c.67-.385 1.441-.584 2.331-.584v-1.186Zm-2.922.74c-.871.5-1.553 1.218-2.043 2.136l1.046.559c.392-.734.92-1.283 1.587-1.666l-.59-1.029Zm-2.047 2.143c-.478.923-.707 1.98-.707 3.155h1.186c0-1.018.198-1.883.575-2.61l-1.054-.545Zm-.707 3.155c0 1.174.23 2.231.707 3.155l1.054-.545c-.377-.728-.575-1.592-.575-2.61h-1.186Zm.71 3.162a5.416 5.416 0 0 0 2.037 2.152l.604-1.02a4.231 4.231 0 0 1-1.594-1.691l-1.046.559Zm2.044 2.157c.868.498 1.847.74 2.921.74v-1.186c-.89 0-1.661-.199-2.33-.583l-.591 1.029Zm2.921.74c.984 0 1.877-.211 2.661-.652l-.581-1.034c-.583.327-1.27.5-2.08.5v1.186Zm2.661-.652c.8-.45 1.412-1.129 1.843-2.007l-1.065-.523c-.337.688-.792 1.177-1.36 1.496l.582 1.034Zm1.311-1.675h2.925v-1.186h-2.925v1.186Zm2.373-.809c-.511 1.31-1.327 2.302-2.451 3l.626 1.008c1.353-.84 2.33-2.04 2.93-3.577l-1.105-.43Zm-2.454 3.002c-1.12.704-2.411 1.062-3.89 1.062v1.186c1.68 0 3.194-.41 4.521-1.244l-.63-1.004Zm-3.89 1.062c-1.301 0-2.475-.297-3.535-.886l-.576 1.037c1.246.692 2.62 1.035 4.11 1.035V28.84Zm-3.53-.884a6.81 6.81 0 0 1-2.537-2.498l-1.02.605a7.997 7.997 0 0 0 2.971 2.925l.586-1.032Zm-2.534-2.493c-.612-1.055-.924-2.253-.924-3.61H71.78c0 1.547.357 2.954 1.084 4.205l1.026-.595Zm18.244 1.878h-.593v.593h.593v-.593Zm5.018 0h.593v-.594h-.593v.594Zm0 1.964v.593h.593v-.593h-.593Zm-7.452 0h-.593v.593h.593v-.593Zm0-14.84v-.594h-.593v.594h.593Zm2.434 0h.593v-.594h-.593v.594Zm0 13.469h5.018v-1.187h-5.018v1.187Zm4.425-.593v1.964h1.186V27.34h-1.186Zm.593 1.37h-7.452v1.187h7.452v-1.186Zm-6.86.594v-14.84h-1.185v14.84h1.186ZM89.7 15.057h2.434V13.87h-2.434v1.187Zm1.84-.593V27.34h1.187V14.464H91.54Zm10.082 1.964v-.593h-.593v.593h.593Zm0 4.356h-.593v.593h.593v-.593Zm5.124 0h.594v-.593h-.594v.593Zm0 1.986v.593h.594v-.593h-.594Zm-5.124 0v-.593h-.593v.593h.593Zm0 4.548h-.593v.593h.593v-.593Zm5.765 0h.593v-.593h-.593v.593Zm0 1.986v.593h.593v-.593h-.593Zm-8.2 0h-.593v.593h.593v-.593Zm0-14.862v-.593h-.593v.593h.593Zm8.2 0h.593v-.593h-.593v.593Zm0 1.986v.593h.593v-.593h-.593Zm-6.358 0v4.356h1.186v-4.356h-1.186Zm.593 4.95h5.124V20.19h-5.124v1.186Zm4.531-.594v1.986h1.187v-1.986h-1.187Zm.593 1.393h-5.124v1.186h5.124v-1.186Zm-5.717.593v4.548h1.186V22.77h-1.186Zm.593 5.141h5.765v-1.186h-5.765v1.186Zm5.172-.593v1.986h1.186v-1.986h-1.186Zm.593 1.393h-8.2v1.186h8.2v-1.186Zm-7.606.593V14.442h-1.187v14.862h1.187Zm-.594-14.269h8.2V13.85h-8.2v1.186Zm7.607-.593v1.986h1.186v-1.986h-1.186Zm.593 1.393h-5.765v1.186h5.765v-1.186Zm12.586-1.371h.593v-.594h-.593v.594Zm0 1.986v.593h.593v-.593h-.593Zm-3.951 0v-.594h-.593v.594h.593Zm0 12.854v.593h.594v-.593h-.594Zm-2.434 0h-.593v.593h.593v-.593Zm0-12.854h.593v-.594h-.593v.594Zm-3.971 0h-.594v.593h.594v-.593Zm0-1.986v-.594h-.594v.594h.594Zm9.763 0v1.986h1.186v-1.986h-1.186Zm.593 1.392h-3.951v1.187h3.951v-1.187Zm-4.544.594v12.854h1.187V16.45h-1.187Zm.593 12.26h-2.434v1.187h2.434v-1.186Zm-1.841.594V16.45h-1.186v12.854h1.186Zm-.593-13.448h-3.971v1.187h3.971v-1.187Zm-3.378.594v-1.986h-1.187v1.986h1.187Zm-.593-1.393h10.356V13.87h-10.356v1.187Z" fill="#000"/><path d="m14.235 0 12.328 19.129H1.907L14.235 0Z" fill="#2F4127"/><path d="M5.338 20.167h17.794v7.117a8.897 8.897 0 0 1-17.794 0v-7.117Z" fill="#885428"/></svg>